<svg width="12" height="12" viewBox="0 0 12 12" fill="none" xmlns="http://www.w3.org/2000/svg">
<path d="M8.33334 3.6853C9.26159 3.6853 10.1518 4.07357 10.8082 4.76469C11.4646 5.45581 11.8333 6.39317 11.8333 7.37057V11.67H9.5V7.37057C9.5 7.04477 9.37709 6.73232 9.15829 6.50194C8.9395 6.27157 8.64276 6.14215 8.33334 6.14215C8.02392 6.14215 7.72717 6.27157 7.50838 6.50194C7.28959 6.73232 7.16667 7.04477 7.16667 7.37057V11.67H4.83334V7.37057C4.83334 6.39317 5.20208 5.45581 5.85846 4.76469C6.51484 4.07357 7.40508 3.6853 8.33334 3.6853V3.6853Z" fill="#101010"/>
<path d="M0.166668 4.29956H2.5V11.6701H0.166668V4.29956Z" fill="#101010"/>
<path d="M1.33333 2.45684C1.97767 2.45684 2.5 1.90686 2.5 1.22842C2.5 0.549983 1.97767 0 1.33333 0C0.689002 0 0.166668 0.549983 0.166668 1.22842C0.166668 1.90686 0.689002 2.45684 1.33333 2.45684Z" fill="#101010"/>
</svg>
