<svg width="26" height="17" viewBox="0 0 26 17" fill="none" xmlns="http://www.w3.org/2000/svg">
<path d="M24.1536 7.08325H1.34574C0.602476 7.08325 -6.10352e-05 7.68579 -6.10352e-05 8.42906V8.57072C-6.10352e-05 9.31399 0.602476 9.91652 1.34574 9.91652H24.1536C24.8968 9.91652 25.4994 9.31399 25.4994 8.57072V8.42906C25.4994 7.68579 24.8968 7.08325 24.1536 7.08325Z" fill="white"/>
<path d="M24.1536 14.1666H1.34574C0.602476 14.1666 -6.10352e-05 14.7692 -6.10352e-05 15.5124V15.6541C-6.10352e-05 16.3974 0.602476 16.9999 1.34574 16.9999H24.1536C24.8968 16.9999 25.4994 16.3974 25.4994 15.6541V15.5124C25.4994 14.7692 24.8968 14.1666 24.1536 14.1666Z" fill="white"/>
<path d="M24.1536 0H1.3458C0.602537 0 0 0.602537 0 1.3458V1.48747C0 2.23074 0.602537 2.83327 1.3458 2.83327H24.1536C24.8969 2.83327 25.4994 2.23074 25.4994 1.48747V1.3458C25.4994 0.602537 24.8969 0 24.1536 0Z" fill="white"/>
</svg>
