<svg width="14" height="12" viewBox="0 0 14 12" fill="none" xmlns="http://www.w3.org/2000/svg">
<path d="M13.4167 0.00653991C12.8581 0.445849 12.2396 0.78185 11.585 1.0016C11.2337 0.55123 10.7668 0.232017 10.2474 0.0871375C9.7281 -0.0577422 9.18137 -0.0212987 8.68122 0.191539C8.18106 0.404377 7.75159 0.783341 7.45091 1.27718C7.15022 1.77101 6.99283 2.35589 7 2.95271V3.60308C5.97487 3.63271 4.95908 3.37923 4.04309 2.8652C3.1271 2.35117 2.33935 1.59255 1.75 0.656908C1.75 0.656908 -0.583331 6.51022 4.66667 9.11169C3.46531 10.0209 2.03418 10.4768 0.583336 10.4124C5.83334 13.6643 12.25 10.4124 12.25 2.9332C12.2495 2.75204 12.2338 2.57133 12.2033 2.39339C12.7987 1.73879 13.2188 0.912316 13.4167 0.00653991V0.00653991Z" fill="#101010"/>
</svg>
